<svg id="Layer_1" data-name="Layer 1" xmlns="http://www.w3.org/2000/svg" viewBox="0 0 492.9 492.9"><defs><style>.cls-1{fill:#333e48;opacity:0.3;}</style></defs><title>back-to-top</title><path class="cls-1" d="M249.55,4C113.44,4,3.1,114.3,3.1,250.41S113.44,496.87,249.55,496.87,496,386.53,496,250.41,385.66,4,249.55,4ZM126.47,273.09l102.8-102.8c12.1-12.1,30.24-12.1,42.33,0l102.81,102.8a33.41,33.41,0,0,1,0,42.33L352.24,337.6l-84.67-84.67c-10.08-8.06-22.17-8.06-32.25-2l-86.68,88.69-24.19-24.19A31.17,31.17,0,0,1,126.47,273.09Z" transform="translate(-3.1 -3.96)"/></svg>