<?xml version="1.0" encoding="utf-8"?>
<!-- Generator: Adobe Illustrator 18.1.1, SVG Export Plug-In . SVG Version: 6.00 Build 0)  -->
<svg version="1.1" id="Layer_1" xmlns="http://www.w3.org/2000/svg" xmlns:xlink="http://www.w3.org/1999/xlink" x="0px" y="0px"
	 viewBox="0 0 175 175" enable-background="new 0 0 175 175" xml:space="preserve">
<g>
	<path fill="#FFFFFF" d="M116.9,103.2v5.7h-15.1l-10.9,14.7h26v5.7H86.6l0,0l0.1,0.1l-0.1,0.2h0l-0.4,0.5l-2,2.7l-2.4,3.2
		c-0.4,0.4-10.4,9.5-20.1,11l-2.4,3.3l-0.5-0.4H30.6v-5.7h26l0.6-0.8c-0.5-4.5,0.4-9.5,1.6-13.6c0-0.1,0.1-0.2,0.1-0.3H30.6v-5.7H61
		c0.6-1.4,1-2.2,1-2.4l0.2-0.3l2.1-2.9l2.5-3.4l0,0l4.3-5.9H30.9v-5.7h44.7l10.9-14.7H30.9v-5.7h59.9l11.4-15.3l-73.1,0V25.1
		l89.8,0.1v19.7l11.9-16V12.8H15.4v149.5h115.4V76.4l-0.6-0.4l0.6-0.8V70l-24.7,33.2H116.9z"/>
	<path fill="#FFFFFF" d="M64.4,126.5v2.9h-1c-1.3,3.9-2.4,8.9-2,13.2l0.2,0.1c7.7-1.4,16.1-8.7,17.3-9.7l2-2.7l-13.1-9.7l-2,2.7
		C65.5,123.7,65,124.9,64.4,126.5z"/>
	<path fill="#FFFFFF" d="M106.4,61.7l6.7-9.1V30.9l-78.3-0.1v30.8L106.4,61.7z M40.7,43.4h66.7v5.7H40.7V43.4z"/>
	<path fill="#FFFFFF" d="M0,0v175h175V0H0z M136.5,77.1V168H9.7V7h126.8v21.1l16.4,12.2l-16.4,22v5.2l20.8-28l-13.1-9.8l3.4-4.6
		l17.7,13.2L136.5,77.1z"/>
	<polygon fill="#FFFFFF" points="136.5,35.2 136.5,35.2 134.4,33.6 113.5,61.7 113.5,61.7 109.5,67.1 72.5,116.8 83,124.6 
		144.8,41.4 	"/>
</g>
</svg>
