<?xml version="1.0" encoding="utf-8"?>
<!-- Generator: Adobe Illustrator 22.1.0, SVG Export Plug-In . SVG Version: 6.00 Build 0)  -->
<svg version="1.1" id="Layer_1" xmlns="http://www.w3.org/2000/svg" xmlns:xlink="http://www.w3.org/1999/xlink" x="0px" y="0px"
	 viewBox="0 0 13.4 8.9" style="enable-background:new 0 0 13.4 8.9;" xml:space="preserve">
<style type="text/css">
	.st0{fill:#276092;}
</style>
<path class="st0" d="M7.7,8.4l5.2-5.1c0.6-0.6,0.6-1.5,0.1-2.1c0,0,0,0-0.1-0.1L11.8,0L7.4,4.4C6.9,4.7,6.3,4.7,5.8,4.3L1.6,0
	L0.4,1.1c-0.6,0.6-0.6,1.5,0,2.1l3.2,3.2c0.5,0.5,1.3,0.5,1.7,0l0,0c-0.5,0.5-1.3,0.5-1.7,0l2,2C6.2,9,7.1,9,7.7,8.4z"/>
</svg>
