<?xml version="1.0" encoding="utf-8"?>
<!-- Generator: Adobe Illustrator 22.1.0, SVG Export Plug-In . SVG Version: 6.00 Build 0)  -->
<svg version="1.1" id="Layer_1" xmlns="http://www.w3.org/2000/svg" xmlns:xlink="http://www.w3.org/1999/xlink" x="0px" y="0px"
	 viewBox="0 0 8.9 13.4" style="enable-background:new 0 0 8.9 13.4;" xml:space="preserve">
<style type="text/css">
	.st0{fill:#276092;}
</style>
<g transform="translate(0)">
	<path class="st0" d="M4.6,7.6c-0.5-0.5-0.5-1.3,0-1.7l4.3-4.3L7.7,0.4c-0.6-0.6-1.5-0.6-2.1,0L2.4,3.6C2,4.1,2,4.9,2.4,5.4L4.6,7.6
		z"/>
	<path class="st0" d="M7.7,12.9l1.1-1.1L2.4,5.4C2,4.9,2,4.1,2.4,3.6l-2,2c-0.6,0.6-0.6,1.5,0,2.1l5.1,5.2
		C6.1,13.5,7.1,13.5,7.7,12.9C7.7,13,7.7,12.9,7.7,12.9z"/>
</g>
</svg>
