<?xml version="1.0" encoding="utf-8"?>
<!-- Generator: Adobe Illustrator 22.1.0, SVG Export Plug-In . SVG Version: 6.00 Build 0)  -->
<svg version="1.1" id="Layer_1" xmlns="http://www.w3.org/2000/svg" xmlns:xlink="http://www.w3.org/1999/xlink" x="0px" y="0px"
	 viewBox="0 0 136.2 155.9" style="enable-background:new 0 0 136.2 155.9;" xml:space="preserve">
<style type="text/css">
	.st0{fill:#FFFFFF;}
	.st1{fill:#004990;}
	.st2{fill:#E31837;}
	.st3{fill:none;}
</style>
<path class="st0" d="M87.9,145.6c-15.4,1-20.1,10.3-20.1,10.3s-4.7-10.3-20.1-10.3c-8.8,0-20.7-1.6-32.1-11.4
	C6.1,126.1,0,114,0,100.5c0-11.2,3.5-20.1,6.6-27.6c1.5-3.5,2.9-6.9,4-10.3c1-3.2,1.6-6.1,1.6-9.1c0-5.9-2.4-11.2-6.3-15L1.4,34
	L33.6-0.3l4.5,2.5c8.8,4.9,19,7.7,29.8,7.7s21-2.8,29.8-7.7l4.5-2.5L134.4,34l-4.5,4.5c-3.9,3.8-6.3,9.2-6.3,15c0,3,0.6,5.9,1.6,9.1
	c1.1,3.4,2.5,6.8,4,10.3c3.1,7.5,6.6,16.4,6.6,27.6c0,13.5-6.1,25.6-15.6,33.7C108.5,144,96.7,145,87.9,145.6L87.9,145.6L87.9,145.6
	z"/>
<path class="st1" d="M100.2,6.8c-9.9,5.5-21.1,8.4-32.4,8.4s-22.6-2.9-32.4-8.4l-0.8-0.5L8.8,33.8l0.9,0.8c5.1,5,7.9,11.7,7.9,18.8
	c0,7-2.6,13.3-5.4,20.1c-3.3,8-6.7,16.3-6.7,26.9c0,11.4,5,22.2,13.8,29.7c10.4,8.9,21.3,9.6,30.1,10.2c7.9,0.5,14.2,0.9,17.6,6.8
	l1.1,1.8l1.1-1.8c3.5-5.9,9.7-6.3,17.6-6.8c8.7-0.6,19.6-1.3,30.1-10.2c8.8-7.4,13.8-18.3,13.8-29.7c0-10.6-3.4-18.9-6.7-26.9
	c-2.8-6.8-5.4-13.1-5.4-20.1c0-7.1,2.8-13.8,7.9-18.8l0.9-0.8L101.6,6.3L100.2,6.8L100.2,6.8z"/>
<path class="st0" d="M16.3,71.1v52.4l0,0c1.4,1.7,2.9,3.2,4.6,4.6c1.6,1.3,3.2,2.5,4.8,3.5V71.1H16.3L16.3,71.1z"/>
<path class="st0" d="M35,71.1v64.5c3.2,0.9,6.3,1.3,9.3,1.6V71.1H35L35,71.1z"/>
<path class="st0" d="M53.7,71.1v66.8l0.7,0.1c2,0.2,3.9,0.5,5.7,1c1.1,0.3,2.1,0.7,3,1.2V71.1H53.7L53.7,71.1z"/>
<path class="st0" d="M72.4,71.1v69.1c1-0.5,2-0.9,3-1.2c1.8-0.5,3.7-0.8,5.7-1l0.7-0.1V71.1H72.4L72.4,71.1z"/>
<path class="st0" d="M91.1,71.1v66.1c3-0.3,6.2-0.7,9.3-1.6V71.1H91.1L91.1,71.1z"/>
<path class="st0" d="M119.2,71.1h-9.3v60.5c1.6-1,3.2-2.1,4.8-3.5c1.7-1.4,3.2-3,4.6-4.6l0,0V71.1H119.2z"/>
<path class="st2" d="M16,71.1c-0.7,1.6-1.3,3.3-2,4.9c-3,7.4-6,15-6,24.5c0,8.7,3.1,16.7,8.3,22.9l0,0V71H16V71.1z"/>
<path class="st2" d="M25.6,71.1v60.5c3.2,1.9,6.3,3.2,9.4,4.1V71.2h-9.4V71.1z"/>
<path class="st2" d="M44.4,71.1v66.2c1.3,0.1,2.6,0.2,3.9,0.2c1.9,0.1,3.8,0.2,5.5,0.4V71.1H44.4L44.4,71.1z"/>
<path class="st2" d="M63.1,71.1v69.1c1.7,0.9,3.3,2,4.6,3.7c1.3-1.6,2.9-2.8,4.6-3.7V71.1H63.1L63.1,71.1z"/>
<path class="st2" d="M81.8,71.1v66.8c1.8-0.2,3.6-0.3,5.5-0.4c1.3-0.1,2.6-0.1,3.9-0.2V71.1H81.8L81.8,71.1z"/>
<path class="st2" d="M100.5,71.1v64.5c3.1-0.9,6.2-2.1,9.4-4.1V71h-9.4V71.1z"/>
<path class="st2" d="M119.5,71.1h-0.3v52.4l0,0c5.1-6.2,8.3-14.2,8.3-22.9c0-9.5-2.9-17.1-6-24.5C120.8,74.3,120.1,72.7,119.5,71.1
	L119.5,71.1z"/>
<path class="st0" d="M58.2,53.2c-0.1-2.2,1.6-3.8,3.6-3.8c1,0,2.4,0.5,3.7,0.9v-4.1c-0.7-0.4-2.5-0.9-3.6-0.9
	c-4.2,0-7.9,3.2-7.9,7.9c0,4.8,3.7,8,7.9,8c1.1,0,2.9-0.5,3.6-0.9v-4.1c-1.4,0.4-2.7,0.9-3.7,0.9C59.8,56.9,58.1,55.4,58.2,53.2
	L58.2,53.2L58.2,53.2L58.2,53.2z"/>
<polygon class="st0" points="68.7,25.7 64.3,25.7 64.3,40.6 68.7,40.6 68.7,25.7 "/>
<polygon class="st0" points="46.9,40.6 51.2,40.6 51.2,33.1 51.2,33.1 56.3,40.6 61,40.6 61,25.7 56.5,25.7 56.5,33.6 56.5,33.6 
	51.4,25.7 46.9,25.7 46.9,40.6 "/>
<path class="st0" d="M39.3,25.7h4.3V34c0,1.9-0.1,3.8-1.6,5.2c-1.3,1.2-3.2,1.6-5,1.6s-3.7-0.4-5-1.6c-1.5-1.4-1.6-3.3-1.6-5.2v-8.3
	h4.3v7.2c0,1.9-0.3,4,2.2,4s2.2-2.1,2.2-4v-7.2H39.3L39.3,25.7z"/>
<polygon class="st0" points="89.5,40.6 93.7,40.6 93.7,33.1 93.8,33.1 98.8,40.6 103.6,40.6 103.6,25.7 99.1,25.7 99.1,33.6 
	99,33.6 94,25.7 89.5,25.7 89.5,40.6 "/>
<polygon class="st0" points="94.1,45.6 89.7,45.6 89.7,60.5 94.1,60.5 94.1,45.6 "/>
<polygon class="st0" points="86.7,48.9 86.7,45.6 76.6,45.6 76.6,60.5 81,60.5 81,55.3 86.7,55.3 86.7,51.8 81,51.8 81,48.9 
	86.7,48.9 "/>
<polygon class="st0" points="73.3,45.6 68.9,45.6 68.9,60.5 73.3,60.5 73.3,45.6 "/>
<path class="st0" d="M101.2,53.2c-0.1-2.2,1.6-3.8,3.6-3.8c1,0,2.4,0.5,3.7,0.9v-4.1c-0.7-0.4-2.5-0.9-3.6-0.9
	c-4.2,0-7.9,3.2-7.9,7.9c0,4.8,3.7,8,7.9,8c1.1,0,2.9-0.5,3.6-0.9v-4.1c-1.4,0.4-2.7,0.9-3.7,0.9C102.7,56.9,101.1,55.4,101.2,53.2
	L101.2,53.2L101.2,53.2L101.2,53.2z"/>
<path class="st0" d="M47.2,54.5l-1.5-4.8l-1.6,4.8H47.2L47.2,54.5L47.2,54.5z M42.9,57.9L42,60.5h-4.1l5.4-14.9h4.9l5.4,14.9h-4.2
	l-0.9-2.6H42.9L42.9,57.9L42.9,57.9z"/>
<path class="st3" d="M121.5,76c-0.7-1.7-1.4-3.3-2-4.9H16c-0.7,1.6-1.3,3.3-2,4.9c-3,7.4-6,15-6,24.5c0,8.7,3.1,16.7,8.2,22.9l0,0
	c1.4,1.7,2.9,3.2,4.6,4.6c1.6,1.3,3.2,2.5,4.8,3.5c3.2,1.9,6.3,3.2,9.4,4.1c3.2,0.9,6.3,1.3,9.3,1.6c1.3,0.1,2.6,0.2,3.9,0.3
	c1.9,0.1,3.8,0.2,5.5,0.4l0.7,0.1c2,0.2,3.9,0.5,5.7,1c1.1,0.3,2.1,0.7,3,1.2c1.7,0.9,3.3,2,4.6,3.7c1.3-1.6,2.9-2.8,4.6-3.7
	c1-0.5,2-0.9,3-1.2c1.8-0.5,3.7-0.8,5.7-1l0.7-0.1c1.8-0.2,3.6-0.3,5.5-0.4c1.3-0.1,2.6-0.2,3.9-0.3c3-0.3,6.2-0.7,9.3-1.6
	c3.1-0.9,6.2-2.1,9.4-4.1c1.6-1,3.2-2.1,4.8-3.5c1.7-1.4,3.2-3,4.6-4.6l0,0c5.1-6.2,8.2-14.2,8.2-22.9
	C127.5,91.1,124.5,83.4,121.5,76L121.5,76z"/>
<path class="st0" d="M79,25.4c-4.4,0-7.9,3.5-7.9,7.8S74.7,41,79,41c4.4,0,7.9-3.5,7.9-7.8C86.9,28.9,83.4,25.4,79,25.4z M79,36.9
	c-2,0-3.7-1.7-3.7-3.7s1.7-3.7,3.7-3.7c2.1,0,3.7,1.7,3.7,3.7S81,36.9,79,36.9z"/>
<path class="st0" d="M33.4,45.5L33.4,45.5l-7-0.1v14.9h4.1v-4.8h2.9c2.7,0,5-2.2,5-5C38.4,47.8,36.2,45.5,33.4,45.5z M33.1,52.3
	h-2.6v-3.4h2.6c0.9,0,1.6,0.7,1.6,1.6C34.7,51.4,34,52.3,33.1,52.3z"/>
</svg>
