<svg id="Layer_1" data-name="Layer 1" xmlns="http://www.w3.org/2000/svg" xmlns:xlink="http://www.w3.org/1999/xlink" viewBox="0 0 200.96 73.1"><defs><style>.cls-1{fill:#3e4249;}.cls-2{fill:url(#linear-gradient);}.cls-3{fill:url(#linear-gradient-2);}.cls-4{fill:url(#linear-gradient-3);}.cls-5{fill:url(#linear-gradient-4);}.cls-6{fill:url(#linear-gradient-5);}.cls-7{fill:url(#linear-gradient-6);}.cls-8{fill:url(#linear-gradient-7);}.cls-9{fill:url(#linear-gradient-8);}.cls-10{fill:url(#linear-gradient-9);}.cls-11{fill:url(#linear-gradient-10);}</style><linearGradient id="linear-gradient" x1="147.76" y1="45.56" x2="170.61" y2="22.71" gradientUnits="userSpaceOnUse"><stop offset="0" stop-color="#2ac0ff"/><stop offset="1" stop-color="#0a8dca"/></linearGradient><linearGradient id="linear-gradient-2" x1="174.05" y1="45.34" x2="196.24" y2="23.15" xlink:href="#linear-gradient"/><linearGradient id="linear-gradient-3" x1="15.31" y1="71.88" x2="31.38" y2="55.8" gradientUnits="userSpaceOnUse"><stop offset="0" stop-color="#2ac0ff"/><stop offset="1" stop-color="#00599a"/></linearGradient><linearGradient id="linear-gradient-4" x1="-43.66" y1="16.92" x2="-12.59" y2="16.92" gradientTransform="translate(71.68 68.02) rotate(45)" gradientUnits="userSpaceOnUse"><stop offset="0" stop-color="#74eaff"/><stop offset="1" stop-color="#54b5ff"/></linearGradient><linearGradient id="linear-gradient-5" x1="17.55" y1="1.09" x2="35.47" y2="21.43" xlink:href="#linear-gradient-3"/><linearGradient id="linear-gradient-6" x1="64.06" y1="122.99" x2="95.14" y2="122.99" gradientTransform="matrix(0.71, -0.71, -0.71, -0.71, 71.68, 156.25)" xlink:href="#linear-gradient-4"/><linearGradient id="linear-gradient-7" x1="0.86" y1="53.23" x2="19.21" y2="38.29" xlink:href="#linear-gradient-3"/><linearGradient id="linear-gradient-8" x1="-51.95" y1="91.52" x2="-20.88" y2="91.52" gradientTransform="matrix(-0.71, -0.71, -0.71, 0.71, 51.96, -60.19)" xlink:href="#linear-gradient-4"/><linearGradient id="linear-gradient-9" x1="71.72" y1="54.75" x2="50.66" y2="39.1" xlink:href="#linear-gradient-3"/><linearGradient id="linear-gradient-10" x1="118.99" y1="262.46" x2="150.07" y2="262.46" gradientTransform="translate(-224.16 -60.19) rotate(-45)" xlink:href="#linear-gradient-4"/></defs><title>logo</title><path class="cls-1" d="M88.65,50.22V22.88h5.91V45.15h14v5.07Z"/><path class="cls-1" d="M126.61,50.76a14.19,14.19,0,1,1,14.21-14.17A14.16,14.16,0,0,1,126.61,50.76Zm-8.37-14.17a8.34,8.34,0,1,0,8.37-8.41A8.44,8.44,0,0,0,118.24,36.59Z"/><path class="cls-2" d="M170.9,40c0,7.41-4.38,11-11.71,11s-11.67-3.53-11.67-11V23h6V40c0,3,.77,6,5.65,6,4.3,0,5.68-1.84,5.68-6V23h6Z"/><path class="cls-3" d="M179.12,23h12.36c6.87,0,9.48,4.34,9.48,8.79s-2.61,8.79-9.48,8.79h-6.33v9.83h-6Zm6,12.9h4.68c2.76,0,5.3-.62,5.3-4.11s-2.54-4.11-5.3-4.11h-4.68Z"/><path class="cls-4" d="M36.06,60.35a3.71,3.71,0,0,0-5.22,0L18.11,73.08l-3.42-3.42a4.53,4.53,0,0,1,0-6.39l9.53-9.53a3.68,3.68,0,0,1,5.22,0Z"/><path class="cls-5" d="M52.24,69.66,48.8,73.1,29.44,53.74a3.68,3.68,0,0,0-5.22,0l6.05-6.05a4.51,4.51,0,0,1,6.39,0L52.24,63.27A4.52,4.52,0,0,1,52.24,69.66Z"/><path class="cls-6" d="M37.23,12.74a3.69,3.69,0,0,1-5.22,0L19.28,0,15.86,3.44a4.51,4.51,0,0,0,0,6.39l9.53,9.53a3.68,3.68,0,0,0,5.21,0Z"/><path class="cls-7" d="M53.41,3.44,50,0,30.6,19.36a3.68,3.68,0,0,1-5.21,0l6.05,6.05a4.51,4.51,0,0,0,6.39,0L53.41,9.83A4.52,4.52,0,0,0,53.41,3.44Z"/><path class="cls-8" d="M12.74,34a3.68,3.68,0,0,1,0,5.22L0,52l3.42,3.43a4.53,4.53,0,0,0,6.39,0l9.53-9.53a3.69,3.69,0,0,0,0-5.22Z"/><path class="cls-9" d="M3.44,17.86,0,21.3,19.36,40.66a3.69,3.69,0,0,1,0,5.22l6.05-6.05a4.51,4.51,0,0,0,0-6.39L9.83,17.86A4.51,4.51,0,0,0,3.44,17.86Z"/><path class="cls-10" d="M56.81,34a3.69,3.69,0,0,0,0,5.22L69.54,52l-3.43,3.43a4.51,4.51,0,0,1-6.38,0l-9.54-9.53a3.69,3.69,0,0,1,0-5.22Z"/><path class="cls-11" d="M66.11,17.86l3.44,3.44L50.19,40.66a3.69,3.69,0,0,0,0,5.22l-6-6.05a4.53,4.53,0,0,1,0-6.39L59.73,17.86A4.5,4.5,0,0,1,66.11,17.86Z"/></svg>