<?xml version="1.0" encoding="utf-8"?>
<!-- Generator: Adobe Illustrator 18.1.1, SVG Export Plug-In . SVG Version: 6.00 Build 0)  -->
<svg version="1.1" id="Layer_1" xmlns="http://www.w3.org/2000/svg" xmlns:xlink="http://www.w3.org/1999/xlink" x="0px" y="0px"
	 viewBox="0 0 175 175" enable-background="new 0 0 175 175" xml:space="preserve">
<g>
	<path fill="#FFFFFF" d="M101.2,46c-0.8-1.9-1.3-3.9-1.6-5.8H75.5c-0.3,1.7-0.7,3.5-1.5,5.2l-0.2,0.6C68,60.3,48.2,87.4,32.6,107.5
		c-8.4,10.8-10,25.3-4.1,37.8c5.8,12.4,17.4,20,30.9,20.5c0.5,0,1,0,1.4,0h53.4c0.5,0,1,0,1.4,0c13.5-0.5,25.1-8.1,30.9-20.5
		c5.9-12.5,4.3-27-4.1-37.8C120.1,78.6,106.2,57.9,101.2,46z M91,133.8v7.7h-6.2v-7.8c-4.7-0.7-9-2.9-12.6-6.3l-0.7-0.6l4.6-5.5
		l0.8,0.8c3.2,3.1,7.4,4.9,11.4,4.9c4.3,0,7.1-2.1,7.1-5.3c0-3.6-2.6-5-8.7-6.9c-6.5-2.1-13.8-4.4-13.8-12.8c0-6.7,4.7-11.3,11.9-12
		v-8H91v8.4c3.8,0.8,7.7,2.5,10.3,4.6l0.8,0.6l-4.4,5.4l-0.8-0.6c-3-2.1-6.9-3.5-10-3.5c-4,0-6.5,1.8-6.5,4.7c0,3.2,3.2,4.4,8.4,6.1
		c7.3,2.3,14.3,4.5,14.3,13.5C103.1,128.1,98.5,132.8,91,133.8z"/>
	<path fill="#FFFFFF" d="M0,0v175h175V0H0z M152,147.9c-6.8,14.5-20.3,23.4-36.1,23.9c-0.5,0-1.1,0-1.6,0H60.8c-0.6,0-1.1,0-1.6,0
		c-15.8-0.5-29.3-9.5-36.1-23.9c-6.8-14.5-5-31.4,4.8-44.1c21.7-28,36.1-49.4,40.4-60.2l0.3-0.7c0.4-0.9,0.7-1.8,0.9-2.8h-5.7v-6h6
		c-0.1-1.7-0.3-2.9-0.3-2.9C67.6,18.6,56.7,9.2,44,9.2h-1v-6h1c15.6,0,29.1,11.7,31.3,27.1c0,0,0.3,1.6,0.4,3.9h23.5
		c0.1-2.2,0.3-3.7,0.4-3.8c2.1-15.5,15.6-27.2,31.4-27.2h1v6h-1c-12.8,0-23.7,9.5-25.4,22.1c0,0.1-0.2,1.2-0.3,2.9h6v6h-5.6
		c0.2,1.2,0.5,2.4,1,3.5c4.7,11.3,18.7,32.1,40.4,60.2C156.9,116.4,158.8,133.3,152,147.9z"/>
</g>
</svg>
