<?xml version="1.0" encoding="utf-8"?>
<!-- Generator: Adobe Illustrator 22.1.0, SVG Export Plug-In . SVG Version: 6.00 Build 0)  -->
<svg version="1.1" xmlns="http://www.w3.org/2000/svg" xmlns:xlink="http://www.w3.org/1999/xlink" x="0px" y="0px"
	 viewBox="0 0 55.2 63" style="enable-background:new 0 0 55.2 63;" xml:space="preserve">
<style type="text/css">
	.st0{fill:#00339A;}
	.st1{fill-rule:evenodd;clip-rule:evenodd;fill:#FFFFFF;}
	.st2{fill:#FFFFFF;}
	.st3{fill:#CD0000;}
	.st4{fill:none;stroke:#00339A;stroke-width:0;stroke-miterlimit:3.8637;}
</style>
<g id="Layer_1">
</g>
<g id="Layer-1">
	<g>
		<path class="st0" d="M41.9,0.2c-4.4,2.4-9.3,3.7-14.3,3.7c-5,0-10-1.3-14.3-3.7L12.9,0L1.5,12.2l0.4,0.4c2.2,2.2,3.5,5.2,3.5,8.3
			c0,3.1-1.2,5.9-2.4,8.9c-1.5,3.5-3,7.2-3,11.9c0,5,2.2,9.8,6.1,13.1c4.6,3.9,9.4,4.2,13.3,4.5c3.5,0.2,6.2,0.4,7.8,3l0.5,0.8
			l0.5-0.8c1.5-2.6,4.3-2.8,7.8-3c3.9-0.3,8.7-0.6,13.3-4.5c3.9-3.3,6.1-8.1,6.1-13.1c0-4.7-1.5-8.3-3-11.9c-1.2-3-2.4-5.8-2.4-8.9
			c0-3.1,1.2-6.1,3.5-8.3l0.4-0.4L42.3,0L41.9,0.2z"/>
		<g>
			<path class="st1" d="M4.9,28.6v23.1l0,0c0.6,0.7,1.3,1.4,2,2.1c0.7,0.6,1.4,1.1,2.1,1.5V28.6H4.9z"/>
			<path class="st2" d="M13.1,28.6v28.5c1.4,0.4,2.8,0.6,4.1,0.7V28.6H13.1z"/>
			<path class="st2" d="M21.4,28.6v29.5l0.3,0c0.9,0.1,1.7,0.2,2.5,0.5c0.5,0.1,0.9,0.3,1.3,0.5V28.6H21.4z"/>
			<path class="st2" d="M29.6,28.6v30.5c0.4-0.2,0.9-0.4,1.3-0.5c0.8-0.2,1.6-0.4,2.5-0.5l0.3,0V28.6H29.6z"/>
			<path class="st2" d="M37.9,28.6v29.2c1.3-0.1,2.7-0.3,4.1-0.7V28.6H37.9z"/>
			<path class="st1" d="M50.3,28.6h-4.1v26.7c0.7-0.4,1.4-0.9,2.1-1.5c0.7-0.6,1.4-1.3,2-2.1l0,0V28.6z"/>
		</g>
		<g>
			<path class="st3" d="M4.7,28.6c-0.3,0.7-0.6,1.4-0.9,2.2C2.5,34,1.2,37.4,1.2,41.6c0,3.8,1.4,7.4,3.6,10.1v0V28.6H4.7z"/>
			<path class="st3" d="M9,28.6v26.7c1.4,0.9,2.8,1.4,4.1,1.8V28.6H9z"/>
			<path class="st3" d="M17.3,28.6v29.2c0.6,0.1,1.2,0.1,1.7,0.1c0.8,0.1,1.7,0.1,2.4,0.2V28.6H17.3z"/>
			<path class="st3" d="M25.5,28.6v30.5c0.8,0.4,1.5,0.9,2,1.6c0.6-0.7,1.3-1.2,2-1.6V28.6H25.5z"/>
			<path class="st3" d="M33.8,28.6v29.5c0.8-0.1,1.6-0.1,2.4-0.2c0.6,0,1.1-0.1,1.7-0.1V28.6H33.8z"/>
			<path class="st3" d="M42,28.6v28.5c1.4-0.4,2.7-0.9,4.1-1.8V28.6H42z"/>
			<path class="st3" d="M50.4,28.6h-0.1v23.1v0C52.6,49,54,45.4,54,41.6c0-4.2-1.3-7.6-2.6-10.8C51,30,50.7,29.3,50.4,28.6z"/>
		</g>
		<g>
			<path class="st1" d="M23.4,20.7c0-1,0.7-1.7,1.6-1.7c0.5,0,1,0.2,1.7,0.4v-1.8c-0.3-0.2-1.1-0.4-1.6-0.4c-1.9,0-3.5,1.4-3.5,3.5
				c0,2.1,1.6,3.5,3.5,3.5c0.5,0,1.3-0.2,1.6-0.4V22c-0.6,0.2-1.2,0.4-1.7,0.4C24.1,22.3,23.3,21.7,23.4,20.7L23.4,20.7L23.4,20.7z"
				/>
			<polygon class="st2" points="28,8.6 26.1,8.6 26.1,15.2 28,15.2 28,8.6 			"/>
			<polygon class="st2" points="18.4,15.2 20.3,15.2 20.3,11.8 20.3,11.8 22.5,15.2 24.6,15.2 24.6,8.6 22.6,8.6 22.6,12 22.6,12 
				20.4,8.6 18.4,8.6 18.4,15.2 			"/>
			<path class="st2" d="M15,8.6h1.9v3.7c0,0.8,0,1.7-0.7,2.3c-0.6,0.5-1.4,0.7-2.2,0.7c-0.8,0-1.6-0.2-2.2-0.7
				c-0.7-0.6-0.7-1.5-0.7-2.3V8.6h1.9v3.2c0,0.8-0.1,1.8,1,1.8c1.1,0,1-0.9,1-1.8V8.6L15,8.6z"/>
			<path class="st1" d="M30.9,11.9c0-0.9,0.7-1.6,1.6-1.6c0.9,0,1.6,0.7,1.6,1.6c0,0.9-0.7,1.6-1.6,1.6
				C31.7,13.5,30.9,12.8,30.9,11.9L30.9,11.9z M29.1,11.9c0-1.9,1.6-3.5,3.5-3.5c1.9,0,3.5,1.5,3.5,3.5c0,1.9-1.6,3.5-3.5,3.5
				C30.6,15.3,29.1,13.8,29.1,11.9L29.1,11.9z"/>
			<polygon class="st2" points="37.2,15.2 39.1,15.2 39.1,11.8 39.1,11.8 41.3,15.2 43.4,15.2 43.4,8.6 41.4,8.6 41.4,12 41.4,12 
				39.2,8.6 37.2,8.6 37.2,15.2 			"/>
			<polygon class="st2" points="39.2,17.3 37.3,17.3 37.3,23.9 39.2,23.9 39.2,17.3 			"/>
			<polygon class="st2" points="36,18.8 36,17.3 31.5,17.3 31.5,23.9 33.4,23.9 33.4,21.6 36,21.6 36,20.1 33.4,20.1 33.4,18.8 
				36,18.8 			"/>
			<polygon class="st2" points="30,17.3 28.1,17.3 28.1,23.9 30,23.9 30,17.3 			"/>
			<path class="st1" d="M42.3,20.7c0-1,0.7-1.7,1.6-1.7c0.5,0,1,0.2,1.7,0.4v-1.8c-0.3-0.2-1.1-0.4-1.6-0.4c-1.9,0-3.5,1.4-3.5,3.5
				c0,2.1,1.6,3.5,3.5,3.5c0.5,0,1.3-0.2,1.6-0.4V22c-0.6,0.2-1.2,0.4-1.7,0.4C43,22.3,42.3,21.7,42.3,20.7L42.3,20.7L42.3,20.7z"/>
			<path class="st1" d="M18.5,21.3l-0.7-2.1l-0.7,2.1H18.5L18.5,21.3z M16.6,22.8l-0.4,1.1h-1.8l2.4-6.6h2.2l2.4,6.6h-1.8l-0.4-1.1
				H16.6L16.6,22.8z"/>
			<path class="st1" d="M11.2,18.8h1.2c0.4,0,0.7,0.3,0.7,0.7c0,0.4-0.3,0.8-0.7,0.8h-1.2V18.8L11.2,18.8z M12.5,17.3
				c1.2,0,2.2,1,2.2,2.2c0,1.2-1,2.2-2.2,2.2h-1.3v2.1H9.4v-6.6H12.5L12.5,17.3z"/>
		</g>
		<path class="st4" d="M51.3,30.8c-0.3-0.7-0.6-1.5-0.9-2.2H4.7c-0.3,0.7-0.6,1.4-0.9,2.2C2.5,34,1.2,37.4,1.2,41.6
			c0,3.8,1.4,7.4,3.6,10.1l0,0c0.6,0.7,1.3,1.4,2,2.1c0.7,0.6,1.4,1.1,2.1,1.5c1.4,0.9,2.8,1.4,4.1,1.8c1.4,0.4,2.8,0.6,4.1,0.7
			c0.6,0.1,1.2,0.1,1.7,0.1c0.8,0.1,1.7,0.1,2.4,0.2l0.3,0c0.9,0.1,1.7,0.2,2.5,0.5c0.5,0.1,0.9,0.3,1.3,0.5c0.8,0.4,1.5,0.9,2,1.6
			c0.6-0.7,1.3-1.2,2-1.6c0.4-0.2,0.9-0.4,1.3-0.5c0.8-0.2,1.6-0.4,2.5-0.5l0.3,0c0.8-0.1,1.6-0.1,2.4-0.2c0.6,0,1.1-0.1,1.7-0.1
			c1.3-0.1,2.7-0.3,4.1-0.7c1.4-0.4,2.7-0.9,4.1-1.8c0.7-0.4,1.4-0.9,2.1-1.5c0.7-0.6,1.4-1.3,2-2.1l0,0c2.3-2.8,3.6-6.3,3.6-10.1
			C54,37.4,52.7,34,51.3,30.8z"/>
	</g>
</g>
</svg>
