<svg xmlns="http://www.w3.org/2000/svg" viewBox="0 0 13.965 11.344"><g transform="translate(0)"><g transform="translate(0 0)"><path class="twittersvg" d="M13.966,58.783a5.721,5.721,0,0,1-1.645.451A2.877,2.877,0,0,0,13.58,57.65a5.775,5.775,0,0,1-1.82.7,2.867,2.867,0,0,0-4.881,2.612,8.133,8.133,0,0,1-5.9-2.993,2.868,2.868,0,0,0,.887,3.824,2.865,2.865,0,0,1-1.3-.36v.036a2.868,2.868,0,0,0,2.3,2.809,2.9,2.9,0,0,1-.755.1,2.75,2.75,0,0,1-.539-.053,2.866,2.866,0,0,0,2.675,1.99A5.748,5.748,0,0,1,.684,67.535,6.086,6.086,0,0,1,0,67.5a8.1,8.1,0,0,0,4.391,1.289,8.094,8.094,0,0,0,8.15-8.15l-.01-.371A5.72,5.72,0,0,0,13.966,58.783Z" transform="translate(-0.001 -57.441)"/></g></g></svg>