<svg xmlns="http://www.w3.org/2000/svg" viewBox="0 0 13.221 12.636"><g transform="translate(0)"><g transform="translate(0 0)"><rect class="linkedinsvg" width="2.84" height="8.53" transform="translate(0.164 4.106)"/><path class="a" d="M159.352,140.308a3.057,3.057,0,0,0-2.367-.977,3.411,3.411,0,0,0-.986.133,2.236,2.236,0,0,0-.749.374,3.207,3.207,0,0,0-.822.9v-1.213H151.6l.009.413q.009.413.009,2.548t-.017,5.569h2.832V143.3a2.079,2.079,0,0,1,.095-.7,1.828,1.828,0,0,1,.547-.736,1.394,1.394,0,0,1,.908-.3,1.225,1.225,0,0,1,1.089.512,2.49,2.49,0,0,1,.349,1.416v4.562h2.832V143.17A4.1,4.1,0,0,0,159.352,140.308Z" transform="translate(-147.027 -135.423)"/><path class="linkedinsvg" d="M1.6,9.708a1.62,1.62,0,0,0-1.158.417A1.386,1.386,0,0,0,0,11.18a1.411,1.411,0,0,0,.43,1.05,1.553,1.553,0,0,0,1.136.422h.017A1.622,1.622,0,0,0,2.75,12.23a1.363,1.363,0,0,0,.435-1.05,1.436,1.436,0,0,0-.439-1.054A1.574,1.574,0,0,0,1.6,9.708Z" transform="translate(0 -9.708)"/></g></g></svg>