<?xml version="1.0" encoding="utf-8"?>
<!-- Generator: Adobe Illustrator 18.1.1, SVG Export Plug-In . SVG Version: 6.00 Build 0)  -->
<svg version="1.1" id="Layer_1" xmlns="http://www.w3.org/2000/svg" xmlns:xlink="http://www.w3.org/1999/xlink" x="0px" y="0px"
	 viewBox="0 0 175 175" enable-background="new 0 0 175 175" xml:space="preserve">
<g>
	<path fill="#FFFFFF" d="M87.5,10.4c-42.6,0-77.3,34.7-77.3,77.3S44.9,165,87.5,165c42.6,0,77.3-34.7,77.3-77.3
		S130.1,10.4,87.5,10.4z M87.5,154.5c-36.8,0-66.8-30-66.8-66.8s30-66.8,66.8-66.8c36.8,0,66.8,30,66.8,66.8S124.3,154.5,87.5,154.5
		z"/>
	<path fill="#FFFFFF" d="M87.5,26.1c-34,0-61.6,27.6-61.6,61.6c0,34,27.6,61.6,61.6,61.6c34,0,61.6-27.6,61.6-61.6
		C149.1,53.7,121.5,26.1,87.5,26.1z M36.7,91.1h-8.8v-6h8.8V91.1z M84.5,28.5h6v8.8h-6V28.5z M90.5,147.7h-6v-8.8h6V147.7z
		 M118.6,123.9L89.7,95c-0.7,0.2-1.4,0.3-2.2,0.3c-3.1,0-5.8-1.9-7-4.6H48.3v-6h32.2c1.2-2.7,3.9-4.6,7-4.6c4.2,0,7.6,3.4,7.6,7.6
		c0,1.2-0.3,2.4-0.8,3.4l28.6,28.6L118.6,123.9z M138.3,85.1h8.8v6h-8.8V85.1z"/>
	<path fill="#FFFFFF" d="M0,0v175h175V0H0z M87.5,171c-45.9,0-83.3-37.3-83.3-83.3S41.6,4.4,87.5,4.4c45.9,0,83.3,37.3,83.3,83.3
		S133.4,171,87.5,171z"/>
</g>
</svg>
