<?xml version="1.0" encoding="utf-8"?>
<!-- Generator: Adobe Illustrator 18.1.1, SVG Export Plug-In . SVG Version: 6.00 Build 0)  -->
<svg version="1.1" id="Layer_1" xmlns="http://www.w3.org/2000/svg" xmlns:xlink="http://www.w3.org/1999/xlink" x="0px" y="0px"
	 viewBox="0 0 175 175" enable-background="new 0 0 175 175" xml:space="preserve">
<g>
	<path fill="#FFFFFF" d="M86,96.8c4.7,0,8.6-3.8,8.6-8.6c0-4.7-3.8-8.6-8.6-8.6c-4.7,0-8.6,3.8-8.6,8.6C77.4,92.9,81.3,96.8,86,96.8
		z"/>
	<path fill="#FFFFFF" d="M86,121.2c18.2,0,33-14.8,33-33c0-17.5-13.7-31.9-30.9-33l0,0l-0.4,0l-0.7,0c-0.1,0-0.3,0-0.7,0
		c-0.9,0-2.5,0-4.4,0.2C65.6,57.5,53,71.4,53,88.2C53,106.4,67.8,121.2,86,121.2z M86,74.8c7.4,0,13.4,6,13.4,13.4
		c0,7.4-6,13.4-13.4,13.4c-7.4,0-13.4-6-13.4-13.4C72.6,80.8,78.6,74.8,86,74.8z"/>
	<path fill="#FFFFFF" d="M60.7,116.4c-7.7-6.9-12.6-17-12.6-28.2c0-11.1,4.8-21,12.3-27.9c-11.9,4.4-26,12.6-38.3,28
		C34.5,103.8,48.7,112,60.7,116.4z"/>
	<path fill="#FFFFFF" d="M0,0v175h175V0H0z M126.8,15.6l4.5,1.8l-10.1,25.9l-4.5-1.8L126.8,15.6z M84.7,4.2h4.8v34.5h-4.8V4.2z
		 M86,50.3c0.8,0,1.5,0,2.3,0.1c7.7,0.1,42.6,2.3,68.7,36.4l1.1,1.5l-1.1,1.5c-26.5,34.6-62.2,36.4-69.1,36.4c-0.4,0-0.7,0-0.8,0
		c-0.1,0-0.4,0-0.8,0c-6.9,0-42.6-1.8-69.1-36.4l-1.1-1.5l1.1-1.5c22.5-29.4,51.6-35.1,64.1-36.2C82.8,50.5,84.4,50.3,86,50.3z
		 M48.2,16.4l10.1,25.9L53.8,44L43.7,18.1L48.2,16.4z M17.6,37.1L29.2,54l-4,2.7L13.6,39.9L17.6,37.1z M17.6,137.9l-4-2.7l11.6-16.9
		l4,2.7L17.6,137.9z M48.2,158.6l-4.5-1.8L53.8,131l4.5,1.8L48.2,158.6z M89.5,170.8h-4.8v-34.5h4.8V170.8z M126.8,159.4l-10.1-25.9
		l4.5-1.8l10.1,25.9L126.8,159.4z M157.4,138.7l-11.6-16.9l4-2.7l11.6,16.9L157.4,138.7z M149.7,56l-4-2.7l11.6-16.9l4,2.7L149.7,56
		z"/>
	<path fill="#FFFFFF" d="M123.9,88.2c0,11.8-5.5,22.4-14,29.4c12.7-4,28.5-12.2,42.1-29.3c-13.5-17-29.2-25.2-41.9-29.2
		C118.5,66,123.9,76.5,123.9,88.2z"/>
</g>
</svg>
