<?xml version="1.0" encoding="utf-8"?>
<!-- Generator: Adobe Illustrator 18.1.1, SVG Export Plug-In . SVG Version: 6.00 Build 0)  -->
<svg version="1.1" id="Layer_1" xmlns="http://www.w3.org/2000/svg" xmlns:xlink="http://www.w3.org/1999/xlink" x="0px" y="0px"
	 viewBox="0 0 175 175" enable-background="new 0 0 175 175" xml:space="preserve">
<g>
	<path fill="#FFFFFF" d="M53,78.2c8.7-2.4,19.4-3.6,31-3.6c1.7,0,3.4,0,5.1,0.1c2.4,0.1,4.9,0.2,7.2,0.4c-0.1-0.1-0.1-0.2-0.2-0.2
		C87.5,65,77.9,57.1,69,52.5C60.3,58.5,54.5,67.8,53,78.2z"/>
	<path fill="#FFFFFF" d="M67,106.8h0.2c5.3,0,11.2-0.8,17.5-2.4c3.8-4.6,7.4-9.8,10.8-15.3c1.7-2.7,3.2-5.5,4.6-8.3
		c-3.7-0.4-7.4-0.6-11.2-0.8C87.3,80,85.6,80,84,80c-11.8,0-22.4,1.3-30.9,3.8c-0.2,0.1-0.4,0.1-0.6,0.2c0,8,2.5,15.7,7.2,22.2
		C61.9,106.6,64.3,106.8,67,106.8z"/>
	<path fill="#FFFFFF" d="M63.3,50c-3-1.1-5.7-1.6-8-1.6c-2.5,0-4.4,0.6-5.8,1.8c-3.6,3.2-3.6,10.5-0.1,20
		C51.9,62.3,56.8,55.2,63.3,50z"/>
	<path fill="#FFFFFF" d="M47.2,86c-4.8,2.1-7.5,4.6-7.6,6.8c-0.1,1.9,1.9,4.2,5.4,6.3c-0.2-2.9,0.7-6.1,2.5-9.4
		C47.3,88.5,47.2,87.2,47.2,86z"/>
	<path fill="#FFFFFF" d="M100.2,71.2c1,1.1,2,2.3,2.9,3.4c3.9-8.6,6.4-16.9,7.1-23.6c-5.9-3.5-12.6-5.4-19.5-5.4
		c-5.6,0-11.2,1.3-16.3,3.6C83.1,54.3,92.2,62.1,100.2,71.2z"/>
	<path fill="#FFFFFF" d="M100.1,91.9c-2.1,3.4-4.3,6.7-6.5,9.9c2.3-0.8,4.7-1.7,7.1-2.7c3.2-1.4,6.4-2.9,9.5-4.5
		c-1.7-3.2-3.8-6.5-6-9.7C102.8,87.3,101.5,89.6,100.1,91.9z"/>
	<path fill="#FFFFFF" d="M134.2,35.8c0.3,0.4,0.7,0.7,1,1c2,1.7,4.6,2.6,7.2,2.6c2.8,0,5.4-1,7.4-2.9c2.2-2,3.5-4.7,3.6-7.6
		c0.1-2.9-0.9-5.8-2.9-8c-2.1-2.3-5.1-3.6-8.2-3.6c-2.8,0-5.4,1-7.4,2.9c-4,3.6-4.8,9.5-1.9,14C133.4,34.8,133.8,35.3,134.2,35.8z"
		/>
	<path fill="#FFFFFF" d="M57.5,17.9c-1.2,0-2.3,0.5-3.2,1.3c-1.8,1.8-1.8,4.6,0,6.4c0.8,0.9,2,1.3,3.2,1.3c1.2,0,2.3-0.5,3.2-1.3
		c0.9-0.8,1.3-2,1.3-3.2s-0.5-2.3-1.3-3.2C59.9,18.4,58.8,17.9,57.5,17.9z"/>
	<path fill="#FFFFFF" d="M139.3,130.8c1.2,0,2.3-0.5,3.2-1.3c1.8-1.8,1.8-4.6,0-6.4c-0.8-0.8-2-1.3-3.2-1.3c-0.7,0-1.3,0.1-1.9,0.4
		c-0.5,0.2-0.9,0.5-1.3,0.9c-0.4,0.4-0.7,0.8-0.9,1.2c-0.3,0.6-0.5,1.3-0.5,1.9c0,1.2,0.5,2.3,1.3,3.2
		C136.9,130.4,138,130.8,139.3,130.8z"/>
	<path fill="#FFFFFF" d="M107.6,38.8c-0.4-0.3-1.1-0.4-1.9-0.4c-1.1,0-3.8,0.3-7.6,2.4c4.3,0.7,8.4,2.1,12.3,4
		C110.1,41.8,109.1,39.7,107.6,38.8z"/>
	<path fill="#FFFFFF" d="M13.5,75.8c-2.5,0-4.5,2-4.6,4.5c0,2.5,1.9,4.6,4.4,4.6c2,0,3.7-1.2,4.3-3c0.2-0.5,0.3-1,0.3-1.4
		c0-0.5-0.1-1.1-0.3-1.6C17,77,15.3,75.8,13.5,75.8z"/>
	<path fill="#FFFFFF" d="M123.9,85.8c-4.4-1.6-9.5-2.8-15.2-3.8c2.3,3.3,4.4,6.6,6.2,9.9C118.2,90,121.2,88,123.9,85.8z"/>
	<path fill="#FFFFFF" d="M130.2,102.5c4.4-2.1,7-4.5,7.1-6.6c0-1.5-1.2-3.3-3.5-5C133.2,94.9,132,98.8,130.2,102.5z"/>
	<path fill="#FFFFFF" d="M126.8,59.3c3.5,5.1,5.8,10.8,6.9,16.9c3.3-4.4,4.4-8.4,3.2-11.3C135.7,62.1,132.1,60.1,126.8,59.3z"/>
	<path fill="#FFFFFF" d="M160.1,76.3c-2.7,0-5,1.8-5.7,4.4c-0.1,0.5-0.2,1-0.2,1.6s0.1,1.1,0.2,1.6c0.7,2.6,3.1,4.4,5.7,4.4
		c3.3,0,5.9-2.7,5.9-5.9C166.1,79,163.4,76.3,160.1,76.3z"/>
	<path fill="#FFFFFF" d="M0,0v175h175V0H0z M160.1,93.7c-5.3,0-9.8-3.6-11.1-8.7H135c5.3,3.3,7.9,7,7.8,11
		c-0.2,5.6-5.9,10.4-16.2,13.7l7.9,7.9c1.5-0.8,3.1-1.2,4.8-1.2c2.7,0,5.2,1,7,2.9c3.9,3.9,3.9,10.2,0,14.1c-1.9,1.9-4.4,2.9-7,2.9
		c-2.7,0-5.2-1-7-2.9s-2.9-4.4-2.9-7c0-1.7,0.5-3.4,1.3-4.9l-7.9-7.9c-0.1,0.1-0.2,0.2-0.3,0.3c0.6,6.4-0.9,11.5-4.4,14.5
		c-2.4,2.1-5.6,3.2-9.4,3.2c-4.4,0-9.4-1.4-15-4.1c-2.2,0.2-4.8,0.1-7.2-0.1l-3.3,9.5c2.4,1.4,4.3,3.5,5.6,6
		c1.6,3.4,1.9,7.2,0.7,10.8c-2,5.7-7.3,9.5-13.4,9.5c-1.6,0-3.1-0.3-4.6-0.8c-3.6-1.2-6.4-3.8-8.1-7.2c-1.6-3.4-1.9-7.2-0.7-10.8
		c2-5.7,7.3-9.5,13.4-9.5c0.7,0,1.3,0.1,2,0.2l3-8.6c-2.9-0.6-5.7-1.6-8.4-2.8c-5.2,3.6-9.9,5.5-13.8,5.5c-1.9,0-3.7-0.5-5.2-1.4
		c-4.9-3-6.7-10.3-4.9-20.7c0,0,0,0,0,0C39,103.2,34,98.2,34.1,92.6c0.1-3.6,2.4-6.8,6.8-9.6H23c-1.2,4.3-5.1,7.3-9.6,7.3h-0.1
		c-5.5-0.1-9.9-4.6-9.8-10.1c0.1-5.4,4.5-9.8,9.9-9.8h0.1c4.4,0.1,8.2,3.1,9.4,7.3h23.6c-6.7-14.3-7-26-0.7-31.5
		c4.7-4.2,12.4-4.2,21.8-0.2L60.3,32c-0.9,0.3-1.8,0.4-2.8,0.4c-2.7,0-5.2-1-7-2.9c-3.9-3.9-3.9-10.2,0-14.1c1.9-1.9,4.4-2.9,7-2.9
		c2.7,0,5.2,1,7,2.9c1.9,1.9,2.9,4.4,2.9,7c0,2.5-0.9,4.8-2.5,6.6l7.9,15c5.3-2.4,11-3.7,16.8-3.8c5.3-4.6,11.1-7.3,15.9-7.3
		c1.9,0,3.5,0.4,4.8,1.2c3.7,2.2,5.5,6.9,5.5,13.6L128.3,37c-4.1-6.7-2.9-15.5,3-20.8c3-2.8,7-4.3,11.1-4.3c4.6,0,9.1,2,12.2,5.4
		c3,3.3,4.5,7.5,4.3,11.9c-0.2,4.4-2.1,8.5-5.4,11.4c-3,2.8-7,4.3-11.1,4.3c-3.9,0-7.6-1.4-10.5-3.8l-12,10.4c0.7,0.6,1.4,1.3,2.1,2
		c10.4,0.3,17.5,3.6,19.9,9.4c2,4.8,0.6,10.5-4,16.8h11.2c1.3-5.1,5.8-8.7,11.1-8.7c6.3,0,11.4,5.1,11.4,11.4
		C171.5,88.6,166.4,93.7,160.1,93.7z"/>
	<path fill="#FFFFFF" d="M115.3,54.6c-1.1,6.5-3.5,14-7,21.8c6.7,1.1,12.8,2.6,18,4.5c0.9,0.3,1.6,0.6,2.3,0.9
		c0.1-0.1,0.2-0.2,0.3-0.3C128.3,71.1,123.3,61.4,115.3,54.6z"/>
	<path fill="#FFFFFF" d="M114.5,124.2c1.4-1.3,2.3-3.1,2.6-5.6c-3.9,3-8.4,5.3-13.1,6.8C108.6,126.6,112.3,126.2,114.5,124.2z"/>
	<path fill="#FFFFFF" d="M67.2,112.3H67c-0.6,0-1.2,0-1.8,0c2.1,1.9,4.4,3.6,6.9,5c2.1-1.7,4.3-3.7,6.5-6
		C74.7,111.9,70.8,112.3,67.2,112.3z"/>
	<path fill="#FFFFFF" d="M80.5,141.4c-0.5-0.3-1-0.5-1.5-0.7c-0.5-0.2-1.1-0.3-1.6-0.4c-0.4-0.1-0.8-0.1-1.2-0.1
		c-3.7,0-7,2.4-8.2,5.9c-0.8,2.2-0.6,4.5,0.4,6.6c1,2.1,2.8,3.6,5,4.4c0.9,0.3,1.9,0.5,2.8,0.5c3.7,0,7-2.4,8.2-5.9
		c0.8-2.2,0.6-4.6-0.4-6.6C83.2,143.6,82,142.3,80.5,141.4z"/>
	<path fill="#FFFFFF" d="M56.6,111.1c-1-0.3-1.9-0.6-2.7-0.9c-0.9,6.7,0.1,11.4,2.6,13c2.2,1.3,6.1,0.4,10.8-2.5
		C63.2,118.1,59.6,114.8,56.6,111.1z"/>
	<path fill="#FFFFFF" d="M112.6,99.5c-3.1,1.6-6.5,3.2-9.9,4.6c-5,2.1-10,3.8-15,5.1c-3.4,4-6.8,7.6-10.2,10.5c2,0.7,4,1.3,6.1,1.7
		c1.2,0.2,2.4,0.4,3.6,0.5c1.2,0.1,2.3,0.2,3.5,0.2c9.7,0,18.9-3.6,26-10.3C116.1,108.1,114.7,104,112.6,99.5z"/>
	<path fill="#FFFFFF" d="M121.2,106.9c4-5.2,6.5-11.4,7.4-17.9c-3.3,2.7-7,5.3-11.2,7.8C119,100.3,120.3,103.7,121.2,106.9z"/>
</g>
</svg>
