<svg xmlns="http://www.w3.org/2000/svg" viewBox="0 0 14.658 14.658"><path class="instagram" d="M10.077,0h-5.5A4.581,4.581,0,0,0,0,4.581v5.5a4.581,4.581,0,0,0,4.581,4.581h5.5a4.581,4.581,0,0,0,4.581-4.581v-5.5A4.581,4.581,0,0,0,10.077,0Zm3.206,10.078a3.21,3.21,0,0,1-3.206,3.206h-5.5a3.21,3.21,0,0,1-3.206-3.206v-5.5A3.21,3.21,0,0,1,4.581,1.374h5.5a3.21,3.21,0,0,1,3.206,3.206Z"/><g transform="translate(3.665 3.665)"><path class="instagram" d="M131.665,128a3.665,3.665,0,1,0,3.665,3.665A3.665,3.665,0,0,0,131.665,128Zm0,5.955a2.29,2.29,0,1,1,2.29-2.29A2.294,2.294,0,0,1,131.665,133.955Z" transform="translate(-128 -128)"/></g><g transform="translate(10.78 2.901)"><ellipse class="instagram" cx="0.488" cy="0.488" rx="0.488" ry="0.488"/></g></svg>